<?xml version="1.0" standalone="no"?>
<!DOCTYPE svg PUBLIC "-//W3C//DTD SVG 20010904//EN"
 "http://www.w3.org/TR/2001/REC-SVG-20010904/DTD/svg10.dtd">
<svg version="1.0" xmlns="http://www.w3.org/2000/svg"
 width="128.000000pt" height="128.000000pt" viewBox="0 0 128.000000 128.000000"
 preserveAspectRatio="xMidYMid meet">
<metadata>
Created by potrace 1.16, written by Peter Selinger 2001-2019
</metadata>
<g transform="translate(0.000000,128.000000) scale(0.100000,-0.100000)"
fill="#000000" stroke="none">
<path d="M270 1205 c-169 -92 -270 -260 -270 -452 0 -140 29 -209 81 -196 33
9 38 33 21 115 -13 63 -14 89 -5 143 24 139 110 254 235 314 74 35 91 60 62
92 -24 27 -50 24 -124 -16z"/>
<path d="M886 1221 c-29 -32 -12 -57 62 -92 125 -60 211 -175 235 -314 9 -54
8 -80 -5 -143 -17 -82 -12 -106 21 -115 52 -13 81 58 81 202 0 139 -52 262
-154 359 -61 58 -167 122 -204 122 -10 0 -27 -9 -36 -19z"/>
<path d="M602 1143 c-22 -9 -42 -60 -42 -107 0 -43 -2 -47 -37 -61 -61 -26
-120 -81 -149 -141 -23 -48 -28 -73 -34 -183 -8 -143 -20 -180 -89 -270 -52
-69 -55 -114 -12 -160 l29 -31 111 0 c110 0 111 0 111 -24 0 -59 79 -126 150
-126 71 0 150 67 150 126 0 24 1 24 111 24 l111 0 29 31 c43 46 40 91 -12 160
-69 91 -82 128 -89 269 -5 94 -12 136 -27 171 -26 59 -92 125 -149 150 -43 19
-44 21 -44 65 0 86 -52 134 -118 107z m126 -262 c77 -40 112 -101 112 -198 1
-151 38 -275 108 -355 17 -19 29 -38 25 -42 -8 -8 -658 -8 -666 0 -4 4 8 23
25 42 69 79 107 208 108 360 0 92 37 154 115 195 42 23 127 21 173 -2z"/>
<path d="M329 1048 c-130 -88 -189 -248 -145 -393 10 -34 16 -40 42 -43 47 -5
58 16 46 85 -23 129 27 229 146 292 49 27 65 59 42 87 -22 25 -66 16 -131 -28z"/>
<path d="M820 1076 c-23 -28 -7 -60 42 -86 118 -64 168 -165 146 -293 -12 -69
-1 -90 46 -85 26 3 32 9 42 43 44 145 -19 312 -148 395 -64 42 -107 50 -128
26z"/>
</g>
</svg>
