<?xml version="1.0" standalone="no"?>
<!DOCTYPE svg PUBLIC "-//W3C//DTD SVG 20010904//EN"
 "http://www.w3.org/TR/2001/REC-SVG-20010904/DTD/svg10.dtd">
<svg version="1.0" xmlns="http://www.w3.org/2000/svg"
 width="200.000000pt" height="200.000000pt" viewBox="0 0 200.000000 200.000000"
 preserveAspectRatio="xMidYMid meet">
<metadata>
Created by potrace 1.16, written by Peter Selinger 2001-2019
</metadata>
<g transform="translate(0.000000,200.000000) scale(0.100000,-0.100000)"
fill="#FF0000" stroke="none">
<path d="M1741 1876 l-123 -124 -65 30 c-49 24 -83 31 -149 36 -164 10 -261
-36 -424 -202 l-95 -96 318 -317 317 -318 103 103 c57 57 118 126 135 155 72
119 82 288 24 410 l-30 65 124 123 c68 68 124 128 124 134 0 13 -112 125 -125
125 -6 0 -66 -56 -134 -124z"/>
<path d="M720 1165 l-146 -145 -47 47 -47 48 -103 -103 c-57 -57 -118 -126
-135 -155 -72 -119 -82 -288 -24 -410 l30 -65 -124 -123 c-68 -68 -124 -128
-124 -134 0 -13 112 -125 125 -125 6 0 66 56 134 124 l123 124 65 -30 c122
-58 291 -48 410 24 29 17 98 78 155 135 l103 103 -48 47 -47 47 146 148 c135
135 146 149 140 175 -9 34 -32 53 -65 53 -20 0 -60 -34 -168 -142 l-143 -143
-132 133 -133 132 143 143 c152 152 165 174 122 217 -38 38 -57 27 -210 -125z"/>
</g>
</svg>
